<svg xmlns="http://www.w3.org/2000/svg" viewBox="0 0 64 64">
  <defs>
    <linearGradient id="bg" x1="0%" y1="0%" x2="100%" y2="100%">
      <stop offset="0%" stop-color="#1e3a5f"/>
      <stop offset="100%" stop-color="#0b1628"/>
    </linearGradient>
    <linearGradient id="ring" x1="0%" y1="0%" x2="100%" y2="100%">
      <stop offset="0%" stop-color="#34d6ff"/>
      <stop offset="60%" stop-color="#2f9bff"/>
      <stop offset="100%" stop-color="#6366f1"/>
    </linearGradient>
    <linearGradient id="glow" x1="50%" y1="0%" x2="50%" y2="100%">
      <stop offset="0%" stop-color="#67e8f9"/>
      <stop offset="100%" stop-color="#2f9bff"/>
    </linearGradient>
  </defs>

  <!-- Background -->
  <rect x="2" y="2" width="60" height="60" rx="16" fill="url(#bg)" stroke="url(#ring)" stroke-width="1.5" opacity="0.95"/>

  <!-- Network edges -->
  <line x1="22" y1="22" x2="42" y2="16" stroke="#2f9bff" stroke-width="1.3" opacity="0.5"/>
  <line x1="42" y1="16" x2="46" y2="38" stroke="#2f9bff" stroke-width="1.3" opacity="0.5"/>
  <line x1="46" y1="38" x2="22" y2="22" stroke="#2f9bff" stroke-width="1.3" opacity="0.4"/>
  <line x1="22" y1="22" x2="18" y2="44" stroke="#2f9bff" stroke-width="1.3" opacity="0.4"/>
  <line x1="18" y1="44" x2="46" y2="38" stroke="#2f9bff" stroke-width="1.3" opacity="0.35"/>
  <line x1="18" y1="44" x2="38" y2="52" stroke="#2f9bff" stroke-width="1.3" opacity="0.4"/>
  <line x1="46" y1="38" x2="38" y2="52" stroke="#2f9bff" stroke-width="1.3" opacity="0.35"/>

  <!-- Core node -->
  <circle cx="32" cy="32" r="7.5" fill="url(#bg)" stroke="url(#ring)" stroke-width="2"/>
  <circle cx="32" cy="32" r="4" fill="url(#glow)" opacity="0.9"/>

  <!-- Satellite nodes -->
  <circle cx="22" cy="22" r="4" fill="url(#glow)" opacity="0.7"/>
  <circle cx="42" cy="16" r="3.5" fill="url(#glow)" opacity="0.55"/>
  <circle cx="46" cy="38" r="3.5" fill="url(#glow)" opacity="0.55"/>
  <circle cx="18" cy="44" r="3.5" fill="url(#glow)" opacity="0.5"/>
  <circle cx="38" cy="52" r="3" fill="url(#glow)" opacity="0.4"/>
</svg>
